<svg width="23" height="15" viewBox="0 0 23 15" fill="none" xmlns="http://www.w3.org/2000/svg">
<path d="M0.0927734 1.11404H22.0152C21.7909 0.465708 21.1754 0 20.4508 0H1.65719C0.932575 0 0.317144 0.465708 0.0927734 1.11404Z" fill="#FF4B55"/>
<path d="M22.1061 4.45605H0.00146484V5.57005H22.1061V4.45605Z" fill="#FF4B55"/>
<path d="M22.1061 2.22778H0.00146484V3.34178H22.1061V2.22778Z" fill="#FF4B55"/>
<path d="M0.00146484 7.41674C0.00146484 7.62721 0.172128 7.79787 0.382596 7.79787H22.1061V6.68384H0.00146484V7.41674Z" fill="#FF4B55"/>
<path d="M22.1061 11.1406H0.00146484V12.2547H22.1061V11.1406Z" fill="#FF4B55"/>
<path d="M22.0153 13.3679H0.0927734C0.317144 14.0162 0.932618 14.482 1.65719 14.482H20.4508C21.1755 14.482 21.7909 14.0162 22.0153 13.3679Z" fill="#FF4B55"/>
<path d="M22.1061 8.9126H0.00146484V10.0266H22.1061V8.9126Z" fill="#FF4B55"/>
</svg>
